<svg width="512" height="512" viewBox="0 0 512 512" fill="none" xmlns="http://www.w3.org/2000/svg">
  <defs>
    <linearGradient id="faviconBgGradient" x1="0" y1="0" x2="512" y2="512" gradientUnits="userSpaceOnUse">
      <stop offset="0" stop-color="#00CC99" />
      <stop offset="1" stop-color="#008060" />
    </linearGradient>
    <linearGradient id="stadiumBowlGradientFav" x1="256" y1="350" x2="256" y2="512" gradientUnits="userSpaceOnUse">
      <stop offset="0" stop-color="#005C45" />
      <stop offset="1" stop-color="#004D39" />
    </linearGradient>
  </defs>

  <!-- Background (Sharp Corners) -->
  <rect width="512" height="512" fill="url(#faviconBgGradient)" />
  
  <!-- Stylized Stadium Bowl (Curvy) -->
  <path d="M0 380C100 350 412 350 512 380V512H0V380Z" fill="url(#stadiumBowlGradientFav)" opacity="0.4" />
  <path d="M0 420C120 400 392 400 512 420V512H0V420Z" fill="url(#stadiumBowlGradientFav)" opacity="0.6" />

  <!-- Cricket Wickets (Minimalist and Stylized) -->
  <g id="wickets" transform="translate(216, 280)">
    <!-- Stumps -->
    <rect x="0" y="0" width="10" height="160" rx="5" fill="#F8F9FA" />
    <rect x="34" y="0" width="10" height="160" rx="5" fill="#F8F9FA" />
    <rect x="68" y="0" width="10" height="160" rx="5" fill="#F8F9FA" />
    <!-- Bails (Curved) -->
    <path d="M-2 -5Q18 -10 38 -5V0Q18 -5 -2 0Z" fill="#F8F9FA" />
    <path d="M42 -5Q62 -10 82 -5V0Q62 -5 42 0Z" fill="#F8F9FA" />
  </g>

  <!-- Rain Streaks (Curved/Organic) -->
  <g id="rain" opacity="0.5">
    <path d="M100 50Q90 80 80 110" stroke="#A5F3FC" stroke-width="1.5" stroke-linecap="round" fill="none" />
    <path d="M200 30Q190 60 180 90" stroke="#A5F3FC" stroke-width="1.5" stroke-linecap="round" fill="none" />
    <path d="M300 60Q290 90 280 120" stroke="#A5F3FC" stroke-width="1.5" stroke-linecap="round" fill="none" />
    <path d="M400 40Q390 70 380 100" stroke="#A5F3FC" stroke-width="1.5" stroke-linecap="round" fill="none" />
    <path d="M150 150Q140 180 130 210" stroke="#A5F3FC" stroke-width="1.5" stroke-linecap="round" fill="none" />
    <path d="M350 130Q340 160 330 190" stroke="#A5F3FC" stroke-width="1.5" stroke-linecap="round" fill="none" />
    <path d="M250 220Q240 250 230 280" stroke="#A5F3FC" stroke-width="1.5" stroke-linecap="round" fill="none" />
    <path d="M50 250Q40 280 30 310" stroke="#A5F3FC" stroke-width="1.5" stroke-linecap="round" fill="none" />
    <path d="M450 200Q440 230 430 260" stroke="#A5F3FC" stroke-width="1.5" stroke-linecap="round" fill="none" />
  </g>
</svg>
